<svg width="169" height="173" viewBox="0 0 169 173" fill="none" xmlns="http://www.w3.org/2000/svg">
<path d="M123.625 172.432C110.329 172.749 94.5004 172.432 83.2623 172.274C72.0242 172.59 56.1959 172.749 42.9001 172.432C56.0376 164.993 60.4696 151.222 61.261 142.042H105.105C106.055 151.222 110.487 164.993 123.625 172.432Z" fill="url(#paint0_linear_342_155)"/>
<path d="M165.728 26.8116V140.617C165.728 143.466 163.512 145.524 160.821 145.524H5.70365C3.01284 145.524 0.796875 143.308 0.796875 140.617V26.8116C0.796875 24.1208 3.01284 21.9048 5.70365 21.9048H160.821C163.512 21.9048 165.728 23.9625 165.728 26.8116Z" fill="#E8EDF8"/>
<path d="M165.728 26.8116V124.947H0.955078V26.8116C0.955078 24.1208 3.17104 21.9048 5.86185 21.9048H160.979C163.512 21.9048 165.728 23.9625 165.728 26.8116Z" fill="#B9C0D0"/>
<path d="M159.872 27.9192H6.81177V119.249H159.713V27.9192H159.872Z" fill="white"/>
<path d="M83.2623 139.192C85.5352 139.192 87.3777 137.35 87.3777 135.077C87.3777 132.804 85.5352 130.962 83.2623 130.962C80.9895 130.962 79.147 132.804 79.147 135.077C79.147 137.35 80.9895 139.192 83.2623 139.192Z" fill="#B9C0D0"/>
<path d="M34.3529 113.709H14.7258C13.143 113.709 11.8767 112.443 11.8767 110.86V35.2009C11.8767 33.6181 13.143 32.3518 14.7258 32.3518H34.3529C35.9357 32.3518 37.202 33.6181 37.202 35.2009V110.86C37.202 112.443 35.9357 113.709 34.3529 113.709Z" fill="#E8EDF8"/>
<path d="M24.5393 47.5468C27.1618 47.5468 29.2878 45.4208 29.2878 42.7983C29.2878 40.1758 27.1618 38.0498 24.5393 38.0498C21.9167 38.0498 19.7908 40.1758 19.7908 42.7983C19.7908 45.4208 21.9167 47.5468 24.5393 47.5468Z" fill="url(#paint1_linear_342_155)"/>
<path d="M32.9284 54.5111H16.1504C15.8338 54.5111 15.6755 54.3528 15.6755 54.0363V52.77C15.6755 52.4535 15.8338 52.2952 16.1504 52.2952H32.7701C33.0867 52.2952 33.245 52.4535 33.245 52.77V54.0363C33.4032 54.3528 33.0867 54.5111 32.9284 54.5111Z" fill="url(#paint2_linear_342_155)"/>
<path d="M32.9284 61.1588H16.1504C15.8338 61.1588 15.6755 61.0006 15.6755 60.684V59.4177C15.6755 59.1012 15.8338 58.9429 16.1504 58.9429H32.7701C33.0867 58.9429 33.245 59.1012 33.245 59.4177V60.684C33.4032 61.0006 33.0867 61.1588 32.9284 61.1588Z" fill="url(#paint3_linear_342_155)"/>
<path d="M32.9284 67.807H16.1504C15.8338 67.807 15.6755 67.6487 15.6755 67.3322V66.0659C15.6755 65.7493 15.8338 65.5911 16.1504 65.5911H32.7701C33.0867 65.5911 33.245 65.7493 33.245 66.0659V67.3322C33.4032 67.6487 33.0867 67.807 32.9284 67.807Z" fill="url(#paint4_linear_342_155)"/>
<path d="M32.9284 74.6129H16.1504C15.8338 74.6129 15.6755 74.4547 15.6755 74.1381V72.8718C15.6755 72.5553 15.8338 72.397 16.1504 72.397H32.7701C33.0867 72.397 33.245 72.5553 33.245 72.8718V74.1381C33.4032 74.2964 33.0867 74.6129 32.9284 74.6129Z" fill="url(#paint5_linear_342_155)"/>
<path d="M32.9284 81.2611H16.1504C15.8338 81.2611 15.6755 81.1028 15.6755 80.7863V79.52C15.6755 79.2034 15.8338 79.0452 16.1504 79.0452H32.7701C33.0867 79.0452 33.245 79.2034 33.245 79.52V80.7863C33.4032 80.9446 33.0867 81.2611 32.9284 81.2611Z" fill="url(#paint6_linear_342_155)"/>
<path d="M32.9284 87.9083H16.1504C15.8338 87.9083 15.6755 87.7501 15.6755 87.4335V86.1672C15.6755 85.8507 15.8338 85.6924 16.1504 85.6924H32.7701C33.0867 85.6924 33.245 85.8507 33.245 86.1672V87.4335C33.4032 87.7501 33.0867 87.9083 32.9284 87.9083Z" fill="url(#paint7_linear_342_155)"/>
<path d="M29.921 94.5568H19.316C18.9995 94.5568 18.8412 94.3985 18.8412 94.0819V92.8157C18.8412 92.4991 18.9995 92.3408 19.316 92.3408H29.921C30.2376 92.3408 30.3959 92.4991 30.3959 92.8157V94.0819C30.3959 94.3985 30.0793 94.5568 29.921 94.5568Z" fill="url(#paint8_linear_342_155)"/>
<path d="M93.3926 102.312H51.131V104.687H93.3926V102.312Z" fill="url(#paint9_linear_342_155)"/>
<path d="M74.082 108.644H51.131V111.018H74.082V108.644Z" fill="url(#paint10_linear_342_155)"/>
<path d="M144.201 102.312H101.94V104.687H144.201V102.312Z" fill="url(#paint11_linear_342_155)"/>
<path d="M124.891 108.644H101.94V111.018H124.891V108.644Z" fill="url(#paint12_linear_342_155)"/>
<g filter="url(#filter0_d_342_155)">
<path d="M132.16 105.318L47.2893 92.5119C44.6579 92.161 42.9036 89.705 43.2544 87.0736L51.8504 25.8497C52.2012 23.2183 54.6572 21.464 57.2886 21.8149L142.16 34.621C144.791 34.9719 146.545 37.4278 146.195 40.0592L137.599 101.283C137.248 103.739 134.792 105.669 132.16 105.318Z" fill="white"/>
</g>
<path d="M129.381 98.3508L53.5135 86.5015C51.3688 86.2156 49.939 84.2138 50.2249 82.0691L57.2311 32.1684C57.517 30.0237 59.5188 28.5939 61.6635 28.8799L137.531 40.7291C139.676 41.015 141.106 43.0168 140.82 45.1615L133.814 95.0622C133.528 97.064 131.526 98.6368 129.381 98.3508Z" fill="#EFF3FB"/>
<path d="M78.6006 65.4544C80.8416 65.795 83.0261 64.1869 83.3666 61.9458C83.7072 59.7048 82.0991 57.5203 79.858 57.1798C77.617 56.8392 75.4325 58.4473 75.092 60.6884C74.7514 62.9294 76.3595 65.1139 78.6006 65.4544Z" fill="#989FB0"/>
<path d="M110.32 70.2745C112.561 70.6151 114.746 69.007 115.086 66.7659C115.427 64.5248 113.819 62.3404 111.578 61.9998C109.337 61.6593 107.152 63.2674 106.812 65.5084C106.445 67.9219 108.079 69.9339 110.32 70.2745Z" fill="#989FB0"/>
<path d="M81.1477 47.6045L71.2998 51.1355L72.1826 53.5975L82.0305 50.0664L81.1477 47.6045Z" fill="#989FB0"/>
<path d="M112.476 52.2986L110.902 54.3875L119.258 60.6837L120.832 58.5949L112.476 52.2986Z" fill="#989FB0"/>
<path d="M92.9933 77.518C95.6592 77.9232 98.0665 76.6308 98.3704 74.6314C98.6742 72.632 96.7594 70.6828 94.0936 70.2777C91.4278 69.8726 89.0204 71.165 88.7166 73.1644C88.4127 75.1637 90.3275 77.1129 92.9933 77.518Z" fill="#989FB0"/>
<path d="M85.5449 36.3379L92 23.5851L110.782 23.5851L103.21 33.9963L108.175 38.577L95.077 62.5614L97.0743 43.4133L85.5449 36.3379Z" fill="#B9C0D0"/>
<path d="M91.1154 17.4753L87.7473 11.5288" stroke="#B9C0D0" stroke-width="2"/>
<path d="M101.377 15.3521L102.844 1.00049" stroke="#B9C0D0" stroke-width="2"/>
<path d="M110.184 18.967L117.136 6.32593" stroke="#B9C0D0" stroke-width="2"/>
<defs>
<filter id="filter0_d_342_155" x="21.2098" y="16.7703" width="147.029" height="127.589" filterUnits="userSpaceOnUse" color-interpolation-filters="sRGB">
<feFlood flood-opacity="0" result="BackgroundImageFix"/>
<feColorMatrix in="SourceAlpha" type="matrix" values="0 0 0 0 0 0 0 0 0 0 0 0 0 0 0 0 0 0 127 0" result="hardAlpha"/>
<feOffset dy="17"/>
<feGaussianBlur stdDeviation="11"/>
<feColorMatrix type="matrix" values="0 0 0 0 0.397708 0 0 0 0 0.47749 0 0 0 0 0.575 0 0 0 0.37 0"/>
<feBlend mode="normal" in2="BackgroundImageFix" result="effect1_dropShadow_342_155"/>
<feBlend mode="normal" in="SourceGraphic" in2="effect1_dropShadow_342_155" result="shape"/>
</filter>
<linearGradient id="paint0_linear_342_155" x1="83.3329" y1="171.678" x2="83.3329" y2="144.486" gradientUnits="userSpaceOnUse">
<stop stop-color="#F5F8FF"/>
<stop offset="0.9913" stop-color="#D8E0EB"/>
</linearGradient>
<linearGradient id="paint1_linear_342_155" x1="27.5097" y1="38.0498" x2="21.5263" y2="38.0498" gradientUnits="userSpaceOnUse">
<stop stop-color="#E3E8F0"/>
<stop offset="1" stop-color="#CCD3DE"/>
</linearGradient>
<linearGradient id="paint2_linear_342_155" x1="29.9906" y1="52.2952" x2="18.8942" y2="52.2952" gradientUnits="userSpaceOnUse">
<stop stop-color="#E3E8F0"/>
<stop offset="1" stop-color="#CCD3DE"/>
</linearGradient>
<linearGradient id="paint3_linear_342_155" x1="29.9906" y1="58.9429" x2="18.8942" y2="58.9429" gradientUnits="userSpaceOnUse">
<stop stop-color="#E3E8F0"/>
<stop offset="1" stop-color="#CCD3DE"/>
</linearGradient>
<linearGradient id="paint4_linear_342_155" x1="29.9906" y1="65.5911" x2="18.8942" y2="65.5911" gradientUnits="userSpaceOnUse">
<stop stop-color="#E3E8F0"/>
<stop offset="1" stop-color="#CCD3DE"/>
</linearGradient>
<linearGradient id="paint5_linear_342_155" x1="29.9906" y1="72.397" x2="18.8942" y2="72.397" gradientUnits="userSpaceOnUse">
<stop stop-color="#E3E8F0"/>
<stop offset="1" stop-color="#CCD3DE"/>
</linearGradient>
<linearGradient id="paint6_linear_342_155" x1="29.9906" y1="79.0452" x2="18.8942" y2="79.0452" gradientUnits="userSpaceOnUse">
<stop stop-color="#E3E8F0"/>
<stop offset="1" stop-color="#CCD3DE"/>
</linearGradient>
<linearGradient id="paint7_linear_342_155" x1="29.9906" y1="85.6924" x2="18.8942" y2="85.6924" gradientUnits="userSpaceOnUse">
<stop stop-color="#E3E8F0"/>
<stop offset="1" stop-color="#CCD3DE"/>
</linearGradient>
<linearGradient id="paint8_linear_342_155" x1="28.2325" y1="92.3408" x2="20.9528" y2="92.3408" gradientUnits="userSpaceOnUse">
<stop stop-color="#E3E8F0"/>
<stop offset="1" stop-color="#CCD3DE"/>
</linearGradient>
<linearGradient id="paint9_linear_342_155" x1="85.4802" y1="102.312" x2="58.8542" y2="102.312" gradientUnits="userSpaceOnUse">
<stop stop-color="#E3E8F0"/>
<stop offset="1" stop-color="#CCD3DE"/>
</linearGradient>
<linearGradient id="paint10_linear_342_155" x1="69.7851" y1="108.644" x2="55.3252" y2="108.644" gradientUnits="userSpaceOnUse">
<stop stop-color="#E3E8F0"/>
<stop offset="1" stop-color="#CCD3DE"/>
</linearGradient>
<linearGradient id="paint11_linear_342_155" x1="136.289" y1="102.312" x2="109.663" y2="102.312" gradientUnits="userSpaceOnUse">
<stop stop-color="#E3E8F0"/>
<stop offset="1" stop-color="#CCD3DE"/>
</linearGradient>
<linearGradient id="paint12_linear_342_155" x1="120.594" y1="108.644" x2="106.134" y2="108.644" gradientUnits="userSpaceOnUse">
<stop stop-color="#E3E8F0"/>
<stop offset="1" stop-color="#CCD3DE"/>
</linearGradient>
</defs>
</svg>
